<?xml version="1.0" encoding="utf-8"?>
<!-- Generator: Adobe Illustrator 16.0.0, SVG Export Plug-In . SVG Version: 6.00 Build 0)  -->
<!DOCTYPE svg PUBLIC "-//W3C//DTD SVG 1.1//EN" "http://www.w3.org/Graphics/SVG/1.1/DTD/svg11.dtd">
<svg version="1.1" id="图层_1" xmlns="http://www.w3.org/2000/svg" xmlns:xlink="http://www.w3.org/1999/xlink" x="0px" y="0px"
	 width="60px" height="60px" viewBox="0 0 60 60" enable-background="new 0 0 60 60" xml:space="preserve">
<circle fill="#3095D3" cx="30" cy="30.375" r="25.403"/>
<path fill="#F9F9F9" d="M32.625,38.125c0,1.45-1.175,2.625-2.625,2.625l0,0c-1.449,0-2.625-1.175-2.625-2.625v-15.5
	C27.375,21.175,28.551,20,30,20l0,0c1.45,0,2.625,1.175,2.625,2.625V38.125z"/>
<path fill="#F9F9F9" d="M22.225,32.925c-1.45-0.014-2.614-1.2-2.6-2.65l0,0c0.014-1.449,1.2-2.613,2.65-2.599l15.5,0.149
	c1.449,0.014,2.613,1.201,2.6,2.65l0,0c-0.015,1.45-1.201,2.614-2.65,2.6L22.225,32.925z"/>
</svg>
