<?xml version="1.0" encoding="utf-8"?>
<!-- Generator: Adobe Illustrator 16.0.0, SVG Export Plug-In . SVG Version: 6.00 Build 0)  -->
<!DOCTYPE svg PUBLIC "-//W3C//DTD SVG 1.1//EN" "http://www.w3.org/Graphics/SVG/1.1/DTD/svg11.dtd">
<svg version="1.1" id="图层_1" xmlns="http://www.w3.org/2000/svg" xmlns:xlink="http://www.w3.org/1999/xlink" x="0px" y="0px"
	 width="60px" height="60px" viewBox="0 0 60 60" enable-background="new 0 0 60 60" xml:space="preserve">
<path fill="none" stroke="#7E7E7E" stroke-width="2" stroke-miterlimit="10" d="M49.75,27.876c3.402,0,5.768,0,6.401,0
	c0.07-0.622-0.321-1.443-0.876-1.997L32.117,2.721c-1.171-1.171-3.07-1.172-4.242,0L4.717,25.879c0,0-0.709,0.902-0.876,1.996
	c0.94,0,3.252,0,6.409,0l0.004,29.243h14.622c0,0,0-11.806,0-16.868c0-4.812,10.25-4.875,10.25,0c0,5.062,0,16.954,0,16.954h14.629
	L49.75,27.876z"/>
</svg>
