<?xml version="1.0" encoding="utf-8"?>
<!-- Generator: Adobe Illustrator 16.0.0, SVG Export Plug-In . SVG Version: 6.00 Build 0)  -->
<!DOCTYPE svg PUBLIC "-//W3C//DTD SVG 1.1//EN" "http://www.w3.org/Graphics/SVG/1.1/DTD/svg11.dtd">
<svg version="1.1" id="图层_1" xmlns="http://www.w3.org/2000/svg" xmlns:xlink="http://www.w3.org/1999/xlink" x="0px" y="0px"
	 width="60px" height="65px" viewBox="20 17.5 60 65" enable-background="new 20 17.5 60 65" xml:space="preserve">
<path fill="#FFFFFF" d="M58.523,63.043c-1.983,0-3.904-0.271-5.727-0.775l-0.029,0.008l3.396,18.615l15.218-22.012l-0.209,0.037
	C67.627,61.512,63.256,63.043,58.523,63.043z"/>
<path fill="#FFFFFF" d="M37.073,41.593c0-2.871,0.565-5.609,1.588-8.111L21,53.329l18.89-1.101v-0.002
	C38.099,49.092,37.073,45.461,37.073,41.593z"/>
<path fill="#FFFFFF" d="M78.592,34.07L76.829,18.5l-15.806,1.792C69.113,21.239,75.826,26.689,78.592,34.07z"/>
<circle fill="none" stroke="#FFFFFF" stroke-width="5" stroke-miterlimit="10" cx="58.523" cy="41.239" r="14.89"/>
<circle fill="none" stroke="#FFFFFF" stroke-width="5" stroke-miterlimit="10" cx="58.5" cy="41.418" r="6.604"/>
</svg>
