<?xml version="1.0" encoding="utf-8"?>
<!-- Generator: Adobe Illustrator 16.0.0, SVG Export Plug-In . SVG Version: 6.00 Build 0)  -->
<!DOCTYPE svg PUBLIC "-//W3C//DTD SVG 1.1//EN" "http://www.w3.org/Graphics/SVG/1.1/DTD/svg11.dtd">
<svg version="1.1" id="图层_2" xmlns="http://www.w3.org/2000/svg" xmlns:xlink="http://www.w3.org/1999/xlink" x="0px" y="0px"
	 width="37px" height="36px" viewBox="0 0 37 36" enable-background="new 0 0 37 36" xml:space="preserve">
<path fill="#FCFCFC" d="M36.586,5.142c0,1.12-0.909,2.028-2.028,2.028H2.945c-1.12,0-2.028-0.908-2.028-2.028V3.028
	C0.917,1.908,1.825,1,2.945,1h31.613c1.119,0,2.028,0.908,2.028,2.028V5.142z"/>
<path fill="#FCFCFC" d="M36.586,18.665c0,1.12-0.909,2.029-2.028,2.029H2.945c-1.12,0-2.028-0.909-2.028-2.029v-2.113
	c0-1.12,0.908-2.028,2.028-2.028h31.613c1.119,0,2.028,0.909,2.028,2.028V18.665z"/>
<path fill="#FCFCFC" d="M36.586,32.02c0,1.121-0.909,2.028-2.028,2.028H2.945c-1.12,0-2.028-0.907-2.028-2.028v-2.112
	c0-1.12,0.908-2.029,2.028-2.029h31.613c1.119,0,2.028,0.909,2.028,2.029V32.02z"/>
</svg>
