<?xml version="1.0" encoding="utf-8"?>
<!-- Generator: Adobe Illustrator 16.0.0, SVG Export Plug-In . SVG Version: 6.00 Build 0)  -->
<!DOCTYPE svg PUBLIC "-//W3C//DTD SVG 1.1//EN" "http://www.w3.org/Graphics/SVG/1.1/DTD/svg11.dtd">
<svg version="1.1" xmlns="http://www.w3.org/2000/svg" xmlns:xlink="http://www.w3.org/1999/xlink" x="0px" y="0px" width="96px"
	 height="70px" viewBox="0 0 96 70" enable-background="new 0 0 96 70" xml:space="preserve">
<g id="图层_1" display="none">
	<g>
		<g display="inline">
			<path fill="#FFFFFF" d="M-3.004,94.04c0-37.586,0-75.171,0-112.778c35.97,0,71.945,0,107.958,0c0,37.578,0,75.178,0,112.778
				C68.983,94.04,32.993,94.04-3.004,94.04z M45.746,44.022c8.183,5.501,17.322,3.142,22.113-2.396
				c5.359-6.198,5.537-14.605,0.84-20.848c-4.81-6.393-13.283-8.393-20.412-4.895c-3.413,1.674-6.015,4.23-7.594,7.707
				c-2.672,5.88-2.055,11.53,1.516,16.893c-3.495,2.817-6.876,5.562-10.281,8.279c-1.372,1.095-2.056,2.445-1.649,4.191
				c0.377,1.622,1.435,2.666,3.062,3.018c1.644,0.356,2.975-0.251,4.016-1.542C40.139,50.979,42.921,47.527,45.746,44.022z
				 M61.743,91.043c0.078,0.073,0.156,0.146,0.234,0.22c0.204-0.231,0.407-0.463,0.611-0.695c-0.049-0.043-0.097-0.086-0.145-0.129
				C62.21,90.64,61.977,90.842,61.743,91.043z M70.771,90.964c0.006,0.056,0.012,0.11,0.018,0.166
				c0.162-0.017,0.323-0.033,0.484-0.05c-0.006-0.058-0.012-0.114-0.019-0.171C71.094,90.928,70.933,90.946,70.771,90.964z"/>
			<path fill-rule="evenodd" clip-rule="evenodd" d="M45.746,44.022c-2.825,3.505-5.607,6.956-8.39,10.407
				c-1.041,1.291-2.372,1.898-4.016,1.542c-1.627-0.352-2.685-1.396-3.062-3.018c-0.406-1.746,0.277-3.097,1.649-4.191
				c3.405-2.717,6.787-5.462,10.281-8.279c-3.571-5.362-4.188-11.012-1.516-16.893c1.58-3.477,4.181-6.033,7.594-7.707
				c7.128-3.498,15.602-1.499,20.412,4.895c4.697,6.242,4.52,14.65-0.84,20.848C63.068,47.164,53.929,49.523,45.746,44.022z
				 M42.85,31.017c0.452,7.038,5.434,12.208,12.708,12.341c6.957,0.128,12.761-5.813,12.688-12.73
				c-0.073-6.968-5.797-12.663-12.712-12.648C48.441,17.995,42.799,23.794,42.85,31.017z"/>
			<path fill-rule="evenodd" clip-rule="evenodd" d="M61.743,91.043c0.233-0.201,0.467-0.403,0.701-0.604
				c0.048,0.043,0.096,0.086,0.145,0.129c-0.204,0.232-0.407,0.464-0.611,0.695C61.899,91.189,61.821,91.116,61.743,91.043z"/>
			<path fill-rule="evenodd" clip-rule="evenodd" d="M70.771,90.964c0.161-0.018,0.322-0.036,0.483-0.055
				c0.007,0.057,0.013,0.113,0.019,0.171c-0.161,0.017-0.322,0.033-0.484,0.05C70.783,91.074,70.777,91.02,70.771,90.964z"/>
			<path fill-rule="evenodd" clip-rule="evenodd" fill="#FFFFFF" d="M42.85,31.017c-0.051-7.223,5.591-13.022,12.684-13.037
				c6.915-0.014,12.639,5.681,12.712,12.648c0.073,6.917-5.73,12.858-12.688,12.73C48.284,43.226,43.302,38.055,42.85,31.017z"/>
		</g>
	</g>
	
		<ellipse transform="matrix(-0.0161 -0.9999 0.9999 -0.0161 13.9016 74.1499)" display="inline" fill="#5F6C76" cx="43.434" cy="30.235" rx="5.386" ry="5.264"/>
	
		<ellipse transform="matrix(-0.016 -0.9999 0.9999 -0.016 13.8992 74.1483)" display="inline" fill="#FFFFFF" cx="43.434" cy="30.235" rx="4.095" ry="4.003"/>
	<path display="inline" fill="#5F6C76" d="M46.616,34.528c0,0,1.792,2.144,2.877,3.418c1.476,0.984,2.591-0.729,1.786-1.762
		c-0.724-0.571-3.562-2.815-3.562-2.815L46.616,34.528z"/>
</g>
<g id="图层_2" display="none">
	
		<ellipse transform="matrix(-0.016 -0.9999 0.9999 -0.016 14.7327 82.9561)" display="inline" fill="#D0D0D0" cx="48.184" cy="34.229" rx="5.386" ry="5.264"/>
	
		<ellipse transform="matrix(-0.0161 -0.9999 0.9999 -0.0161 14.7346 82.9583)" display="inline" fill="#F6F6F6" cx="48.184" cy="34.229" rx="4.095" ry="4.003"/>
	<path display="inline" fill="#D0D0D0" d="M51.365,38.522c0,0,1.793,2.144,2.878,3.418c1.476,0.984,2.591-0.729,1.786-1.762
		c-0.724-0.571-3.562-2.815-3.562-2.815L51.365,38.522z"/>
</g>
<g id="图层_3">
	<path fill="none" stroke="#7E7E7E" stroke-width="2" stroke-miterlimit="10" d="M43.39,9.991
		c10.88-0.175,19.847,8.708,20.024,19.841c0.181,11.133-8.495,20.298-19.373,20.467c-10.88,0.185-19.847-8.694-20.025-19.833
		C23.839,19.332,32.515,10.166,43.39,9.991z"/>
	<path fill="none" stroke="#7E7E7E" stroke-width="2" stroke-miterlimit="10" d="M55.623,46.21
		c1.179,1.409,6.712,8.03,10.771,12.795c5.521,3.686,9.696-2.722,6.686-6.592c-2.708-2.136-11.457-8.311-13.726-9.998
		C59.354,42.415,57.478,44.746,55.623,46.21z"/>
	<circle fill="none" stroke="#7E7E7E" stroke-width="2" stroke-miterlimit="10" cx="43.715" cy="30.145" r="13.004"/>
</g>
</svg>
